<?xml version="1.0" encoding="UTF-8" standalone="no"?>
<!DOCTYPE svg PUBLIC "-//W3C//DTD SVG 1.1//EN" "http://www.w3.org/Graphics/SVG/1.1/DTD/svg11.dtd">
<svg width="100%" height="100%" viewBox="0 0 60 60" version="1.1" xmlns="http://www.w3.org/2000/svg" xmlns:xlink="http://www.w3.org/1999/xlink" xml:space="preserve" xmlns:serif="http://www.serif.com/" style="fill-rule:evenodd;clip-rule:evenodd;stroke-linejoin:round;stroke-miterlimit:2;">
    <g transform="matrix(0.313152,0,0,0.313152,5.90156,8.32555)">
        <path d="M11.523,52.781C6.13,75.641 13.015,99.002 29,116C29.961,117.04 29.961,117.04 30.941,118.102C41.414,128.396 57.401,135.075 72,136C73.085,136.079 73.085,136.079 74.191,136.16C102.869,137.247 129.022,119.619 139.716,93.234C141.99,87.016 143.689,80.63 144,74C144.052,73.207 144.103,72.414 144.156,71.598C145.116,44.357 129.517,17.777 104.053,7.19C65.161,-7.56 22.664,11.366 11.523,52.781ZM124.994,30.518C134.158,46.3 132.901,62.51 122,77C119.254,80.137 116.341,83.08 113.383,86.016C112.558,86.842 111.734,87.669 110.91,88.497C109.195,90.216 107.475,91.93 105.751,93.64C103.561,95.813 101.383,98.001 99.21,100.192C97.108,102.307 94.995,104.411 92.883,106.516C92.112,107.293 91.341,108.07 90.546,108.871C76.804,122.437 60.256,127.521 42,119C27.399,110.426 20.898,95.454 23,79C25.739,67.734 32.026,60.645 40.008,52.621C40.897,51.722 41.787,50.824 42.676,49.925C44.537,48.048 46.402,46.175 48.27,44.305C50.642,41.928 52.997,39.534 55.349,37.137C57.18,35.276 59.022,33.427 60.868,31.58C61.74,30.704 62.608,29.823 63.472,28.938C80.377,11.653 109.92,7.495 124.994,30.518Z" style="fill-rule:nonzero;"/>
    </g>
</svg>
